<svg xmlns="http://www.w3.org/2000/svg" viewBox="0 0 242.4 77.5" enable-background="new 0 0 242.4 77.5"><path d="M43.6 6.6S26.8 40.4 24.7 45.1c-4.1 1.4 4.5-22.5 6.6-32.3 2.8-13-20-17.1-28.4-8-8.1 8.7 2.5 20.2 10.9 12.7-5.7-.1-8.6-5.8-4.8-11.6C12.9-.2 24.4 1 22.6 11.7c-1.2 7-4.3 19.6-6.3 29C14.1 51 20.8 54 27.1 54l24.1-43.8-7.6-3.6zM49.1 51.4c-2.1.5-2.4-.7-2-1.9 2.2-6.3 7.3-17 7.3-17L49.3 30s-6.4 13.9-8.1 18.3c-1.5 3.7 1.8 5.8 5 5.8 3.1 0 5.6-1.8 7.6-4.3.6 2.7 2.5 4.2 5.9 4.2 2.4 0 4.4-1.5 6.1-3.5.3 2.4 2.8 3.6 5.4 3.6 4.4 0 7.6-3.6 9.9-7.7l-1.2-.6c-1.5 2.3-3.8 5.2-5.8 5.7-2.1.5-2.4-.7-2.1-1.9 2.1-6 6.9-16.1 9-20.8 1.5.1 2.9 0 4.3-.6 5.4-2.1 7.2-7.6.6-8.5-5.7-.8-8 2.8-9.2 5.3-2.8-1.3-6-2.9-9.7-3.8-12.7-3.1-19.7 4.4-18.6 7.2.8-2.4 6.6-5.4 17.8-3.1 3.3.7 6.4 1.7 9.3 2.5-2.4 5-6.7 14.4-8.7 19.1-1.4 2.1-3.4 4.2-5.1 4.7-2.1.5-2.4-1-2.3-2.6.4-8.2 6.4-13.4 9-14.9.2 2.3-1.9 5.1-4.4 6.8 5.9-1 8.8-7.3 7.6-7.9l-5.2-2.4c-.6-.2-1-.5-2 0-1.7.9-5.1 2.9-8.2 8.9-1.6 3.2-2.4 6-2.6 8.3-1.3 1.4-3 3.2-4.5 3.6zm36.3-25.1c-1.1.4-2.3.5-3.4.3 1.2-2.3 2.5-4.4 3.9-4.1 2.9.7 2.2 2.8-.5 3.8zM97.6 45.5c-4.1 6.4-14.4 8.6-12.8.2 13.5-2.2 13.5-13.2 13.5-13.2s-3.8-2.2-5.2-2.7c-.7-.3-1.4-.4-2.2 0-2.5 1.1-8.6 4.5-11.7 13.3-2.8 8.3 3.2 10.9 6.6 10.9 5.9 0 10.2-2.9 12.9-7.8l-1.1-.7zm-3.3-11.2c.6 1.4-2.4 6.4-8.7 8.8 2-5 6-8.2 8.7-8.8zM121.6 45.2c-2 3.5-4.1 4.4-6 3.8 3.8-5.2 4-13.1 2.6-16.5 0 0-3.8-2.2-5.2-2.7-.5-.2-1.2-.5-2.3 0-2.6 1.2-8.6 4.6-11.6 13.3-2.9 8.3 3.1 10.9 6.6 10.9 3.7 0 6.5-1.3 8.5-3.4 2.6 1.3 6.4-.7 8.4-4.5l-1-.9zm-9.4-2.6c0-4.3 1.4-6.4 2.5-7.4.4 1.9-.3 6.5-2.2 10.3-.1-.8-.3-1.8-.3-2.9zm-4.8 8.5c-2.3.7-3.8-2.3-2.6-6.4 1.7-5.9 7-10.6 9.3-10.4.1 0 .1 0 .2.1-.3.1-3.7 1.5-3.7 8.2 0 2 .3 3.6.9 4.9-1.1 1.7-2.5 3.1-4.1 3.6zM154.6 59.2s-2.9 3.1-10.6 1.2c-3.4-.8-6.3-1.8-9.1-2.5 2.9-7.3 11.2-25.3 11.2-25.3l-5.1-2.4s-4.1 9.1-7.7 17c-1.4 2-3.3 4-4.9 4.4-2.1.5-2.4-.9-2.3-2.6.4-8.2 6.5-13.4 9.1-14.9.2 2.3-1.9 5.2-4.5 6.8 6-1 8.8-7.4 7.6-8l-5.2-2.4c-.5-.3-1-.5-2 0-1.8.9-5.1 2.8-8.2 8.9-4.5 8.9-3.2 14.8 3.5 14.8 1.7 0 3.3-.8 4.7-2-.9 2-1.6 3.7-2.2 4.8-1.3 0-2.7.1-4 .5-5.6 1.5-7.2 7.6-.6 8.5 6 .8 8.6-3.3 9.7-5.9 5.9 1.5 10.4 3.8 13.8 4 7.3.4 6.8-4.9 6.8-4.9zm-30.3 3.7c-3.8-.6-1.5-4.5 3.6-4h.2c-1 2.3-2 4.3-3.8 4zM170.5 45.7c-1.4 2.3-3.8 5.2-5.8 5.7-2.1.5-2.4-.7-2-1.9 2.2-6.3 7.3-17 7.3-17l-5.1-2.4s-5.1 11.2-7.4 16.7c-1.5 2.1-3.5 4.3-5.2 4.8-2.1.5-2.4-1-2.3-2.6.4-8.2 6.4-13.4 9-14.9.2 2.3-1.9 5.1-4.4 6.8 5.9-1 8.8-7.3 7.6-7.9 0 0-3.8-1.8-5.2-2.4-.6-.2-1-.5-2 0-1.7.9-5.1 2.9-8.2 8.9-4.4 8.8-3.1 14.8 3.5 14.8 2.4 0 4.5-1.5 6.2-3.5.2 2.4 2.8 3.6 5.4 3.6 4.4 0 7.6-3.6 9.9-7.7l-1.3-1zM205.7 45.7c-1.5 2.3-3.8 5.2-5.9 5.7-2.1.5-2.4-.7-2-1.9 1.5-4.4 4.5-11 6.2-14.5.7-1.5-3.3-4.7-3.3-4.7-1.5-1.1-5.6 1.7-8.6 4.8.7-1.5-3.3-4.7-3.3-4.7-1.5-1.1-5.6 1.7-8.6 4.8.7-1.5 1.2-2.5 1.2-2.5l-5.1-2.4s-6.4 13.9-8.2 18.3c-1.4 3.6 1.4 5.5 4.5 5.8 0-.6.5-1.9 1.4-4.6.7-2.1 1.8-4.8 2.9-7.3v.1c5.2-7.9 9.6-8.7 8.6-6.6-2 4.3-4.5 10-5.5 12.6-1.5 3.7 1.8 5.8 5 5.8h.1c-.1-1.4.5-3.7.8-4.6.7-2.1 1.8-4.7 2.9-7.2 5.2-7.9 9.6-8.7 8.7-6.6-2 4.3-4.6 10-5.6 12.6-1.5 3.7 1.8 5.8 5 5.8 4.4 0 7.6-3.6 9.9-7.7l-1.1-1zM223.3 45.5c-4.1 6.4-14.4 8.6-12.8.2C224 43.6 224 32.5 224 32.5s-3.8-2.2-5.2-2.7c-.7-.3-1.4-.4-2.2 0-2.5 1.1-8.6 4.5-11.7 13.3-2.8 8.3 3.2 10.9 6.6 10.9 5.9 0 10.2-2.9 12.9-7.8l-1.1-.7zm-3.2-11.2c.6 1.4-2.4 6.4-8.7 8.8 1.9-5 6-8.2 8.7-8.8zM235.8 31.6c2.5 0 1.7 5.9-.9 5.9 5.6 4.7 12.8-7.9 1.5-7.9-4.1 0-8.7 2.2-9.2 7.2-.5 5.2 3.8 6.9 3.9 10.1 0 2.8-1.2 4.4-3.4 4.4-3.4 0-3-5.2-.1-5.2-5.6-4.7-10.4 7.8.9 7.8 2.3 0 8.7-1.5 9.3-7.1.5-4.8-5.3-7.9-4.8-12.1.1-1.8 1.4-3.1 2.8-3.1zM150.2 68.3c0-.9-.8-1.7-1.7-1.7-.9 0-1.7.8-1.7 1.7 0 .9.8 1.7 1.7 1.7.9 0 1.7-.8 1.7-1.7zM163.6 56c1.6 0 1.1 3.7-.6 3.7 3.5 2.9 8-4.9.9-4.9-2.6 0-5.4 1.4-5.8 4.5-.3 3.3 2.4 4.3 2.4 6.3 0 1.8-.8 2.8-2.1 2.8-2.1 0-1.9-3.3-.1-3.3-3.5-2.9-6.5 4.9.6 4.9 1.4 0 5.4-1 5.8-4.4.3-3-3.3-5-3-7.6.2-1.2 1-2 1.9-2zM178.8 64.7c-2.6 4-9 5.4-8 .2 8.4-1.4 8.4-8.3 8.4-8.3s-2.4-1.4-3.2-1.7c-.5-.2-.9-.2-1.4 0-1.6.7-5.4 2.8-7.3 8.3-1.8 5.2 2 6.8 4.1 6.8 3.7 0 6.4-1.8 8-4.9l-.6-.4zm-2-7c.4.9-1.5 4-5.5 5.5 1.3-3.2 3.8-5.2 5.5-5.5zM192.8 64.8c-.9 1.4-2.3 3.5-3.6 3.5-1.2 0-2-2.2-2.6-5 2.9-2.6 5.2-5.4 6.3-6.9l-2.1-1.4c-.2.3-2.1 2.6-4.8 5.3-.3-2-.4-4-.5-5.3h-4.3s.2 4.6 1.3 8.6c-.8.8-1.7 1.4-2.6 2.1-3.1 2.4-.6 4.3.8 4.3 0 0-.6-1.5 1.2-2.8.5-.3 1-.7 1.5-1.1.9 2.2 2.1 3.9 3.9 3.9 3.9 0 6.3-4.9 6.3-4.9l-.8-.3zM213.2 73.2s-1.8 1.9-6.6.7c-2.1-.5-4-1.1-5.7-1.6 1.8-4.6 7-15.8 7-15.8l-3.2-1.5s-2.8 6.1-5 11.2c-.8 1-1.8 2-2.7 2.2-1.3.3-1.5-.4-1.3-1.2 1.4-4 4.6-10.7 4.6-10.7l-3.2-1.5s-4 8.6-5.1 11.4c-.9 2.4 1.1 3.6 3.2 3.6 1.3 0 2.4-.5 3.3-1.2-.5 1.2-1 2.2-1.3 2.9-.8 0-1.7.1-2.5.3-3.5.9-4.5 4.8-.4 5.3 3.7.5 5.4-2.1 6.1-3.7 3.7.9 6.5 2.4 8.6 2.5 4.5.4 4.2-2.9 4.2-2.9zm-18.9 2.4c-2.4-.4-.9-2.8 2.2-2.5h.1c-.6 1.4-1.2 2.6-2.3 2.5z"/></svg>