<?xml version="1.0" encoding="utf-8"?>
<!-- Generator: Adobe Illustrator 18.1.0, SVG Export Plug-In . SVG Version: 6.00 Build 0)  -->
<!DOCTYPE svg PUBLIC "-//W3C//DTD SVG 1.1//EN" "http://www.w3.org/Graphics/SVG/1.1/DTD/svg11.dtd">
<svg version="1.1" id="Layer_1" xmlns="http://www.w3.org/2000/svg" xmlns:xlink="http://www.w3.org/1999/xlink" x="0px" y="0px"
	 viewBox="0 0 242.4 77.5" enable-background="new 0 0 242.4 77.5" xml:space="preserve">
<path d="M43.6,6.6c0,0-16.8,33.8-18.9,38.5c-4.1,1.4,4.5-22.5,6.6-32.3c2.8-13-20-17.1-28.4-8C-5.2,13.5,5.4,25,13.8,17.5
	c-5.7-0.1-8.6-5.8-4.8-11.6c3.9-6.1,15.4-4.9,13.6,5.8c-1.2,7-4.3,19.6-6.3,29C14.1,51,20.8,54,27.1,54l24.1-43.8L43.6,6.6z"/>
<path d="M49.1,51.4c-2.1,0.5-2.4-0.7-2-1.9c2.2-6.3,7.3-17,7.3-17L49.3,30c0,0-6.4,13.9-8.1,18.3c-1.5,3.7,1.8,5.8,5,5.8
	c3.1,0,5.6-1.8,7.6-4.3c0.6,2.7,2.5,4.2,5.9,4.2c2.4,0,4.4-1.5,6.1-3.5c0.3,2.4,2.8,3.6,5.4,3.6c4.4,0,7.6-3.6,9.9-7.7l-1.2-0.6
	c-1.5,2.3-3.8,5.2-5.8,5.7c-2.1,0.5-2.4-0.7-2.1-1.9c2.1-6,6.9-16.1,9-20.8c1.5,0.1,2.9,0,4.3-0.6c5.4-2.1,7.2-7.6,0.6-8.5
	c-5.7-0.8-8,2.8-9.2,5.3c-2.8-1.3-6-2.9-9.7-3.8c-12.7-3.1-19.7,4.4-18.6,7.2c0.8-2.4,6.6-5.4,17.8-3.1c3.3,0.7,6.4,1.7,9.3,2.5
	c-2.4,5-6.7,14.4-8.7,19.1c-1.4,2.1-3.4,4.2-5.1,4.7c-2.1,0.5-2.4-1-2.3-2.6c0.4-8.2,6.4-13.4,9-14.9c0.2,2.3-1.9,5.1-4.4,6.8
	c5.9-1,8.8-7.3,7.6-7.9c0,0-3.9-1.8-5.2-2.4c-0.6-0.2-1-0.5-2,0c-1.7,0.9-5.1,2.9-8.2,8.9c-1.6,3.2-2.4,6-2.6,8.3
	C52.3,49.2,50.6,51,49.1,51.4z M85.4,26.3c-1.1,0.4-2.3,0.5-3.4,0.3c1.2-2.3,2.5-4.4,3.9-4.1C88.8,23.2,88.1,25.3,85.4,26.3z"/>
<path d="M97.6,45.5c-4.1,6.4-14.4,8.6-12.8,0.2c13.5-2.2,13.5-13.2,13.5-13.2s-3.8-2.2-5.2-2.7c-0.7-0.3-1.4-0.4-2.2,0
	c-2.5,1.1-8.6,4.5-11.7,13.3C76.4,51.4,82.4,54,85.8,54c5.9,0,10.2-2.9,12.9-7.8L97.6,45.5z M94.3,34.3c0.6,1.4-2.4,6.4-8.7,8.8
	C87.6,38.1,91.6,34.9,94.3,34.3z"/>
<path d="M121.6,45.2c-2,3.5-4.1,4.4-6,3.8c3.8-5.2,4-13.1,2.6-16.5c0,0-3.8-2.2-5.2-2.7c-0.5-0.2-1.2-0.5-2.3,0
	c-2.6,1.2-8.6,4.6-11.6,13.3c-2.9,8.3,3.1,10.9,6.6,10.9c3.7,0,6.5-1.3,8.5-3.4c2.6,1.3,6.4-0.7,8.4-4.5L121.6,45.2z M112.2,42.6
	c0-4.3,1.4-6.4,2.5-7.4c0.4,1.9-0.3,6.5-2.2,10.3C112.4,44.7,112.2,43.7,112.2,42.6z M107.4,51.1c-2.3,0.7-3.8-2.3-2.6-6.4
	c1.7-5.9,7-10.6,9.3-10.4c0.1,0,0.1,0,0.2,0.1c-0.3,0.1-3.7,1.5-3.7,8.2c0,2,0.3,3.6,0.9,4.9C110.4,49.2,109,50.6,107.4,51.1z"/>
<path d="M154.6,59.2c0,0-2.9,3.1-10.6,1.2c-3.4-0.8-6.3-1.8-9.1-2.5c2.9-7.3,11.2-25.3,11.2-25.3l-5.1-2.4c0,0-4.1,9.1-7.7,17
	c-1.4,2-3.3,4-4.9,4.4c-2.1,0.5-2.4-0.9-2.3-2.6c0.4-8.2,6.5-13.4,9.1-14.9c0.2,2.3-1.9,5.2-4.5,6.8c6-1,8.8-7.4,7.6-8
	c0,0-3.9-1.8-5.2-2.4c-0.5-0.3-1-0.5-2,0c-1.8,0.9-5.1,2.8-8.2,8.9c-4.5,8.9-3.2,14.8,3.5,14.8c1.7,0,3.3-0.8,4.7-2
	c-0.9,2-1.6,3.7-2.2,4.8c-1.3,0-2.7,0.1-4,0.5c-5.6,1.5-7.2,7.6-0.6,8.5c6,0.8,8.6-3.3,9.7-5.9c5.9,1.5,10.4,3.8,13.8,4
	C155.1,64.5,154.6,59.2,154.6,59.2z M124.3,62.9c-3.8-0.6-1.5-4.5,3.6-4c0,0,0.1,0,0.2,0C127.1,61.2,126.1,63.2,124.3,62.9z"/>
<path d="M170.5,45.7c-1.4,2.3-3.8,5.2-5.8,5.7c-2.1,0.5-2.4-0.7-2-1.9c2.2-6.3,7.3-17,7.3-17l-5.1-2.4c0,0-5.1,11.2-7.4,16.7
	c-1.5,2.1-3.5,4.3-5.2,4.8c-2.1,0.5-2.4-1-2.3-2.6c0.4-8.2,6.4-13.4,9-14.9c0.2,2.3-1.9,5.1-4.4,6.8c5.9-1,8.8-7.3,7.6-7.9
	c0,0-3.8-1.8-5.2-2.4c-0.6-0.2-1-0.5-2,0c-1.7,0.9-5.1,2.9-8.2,8.9c-4.4,8.8-3.1,14.8,3.5,14.8c2.4,0,4.5-1.5,6.2-3.5
	c0.2,2.4,2.8,3.6,5.4,3.6c4.4,0,7.6-3.6,9.9-7.7L170.5,45.7z"/>
<path d="M205.7,45.7c-1.5,2.3-3.8,5.2-5.9,5.7c-2.1,0.5-2.4-0.7-2-1.9c1.5-4.4,4.5-11,6.2-14.5c0.7-1.5-3.3-4.7-3.3-4.7
	c-1.5-1.1-5.6,1.7-8.6,4.8l0,0c0.7-1.5-3.3-4.7-3.3-4.7c-1.5-1.1-5.6,1.7-8.6,4.8c0.7-1.5,1.2-2.5,1.2-2.5l-5.1-2.4
	c0,0-6.4,13.9-8.2,18.3c-1.4,3.6,1.4,5.5,4.5,5.8c0-0.6,0.5-1.9,1.4-4.6c0.7-2.1,1.8-4.8,2.9-7.3v0.1c5.2-7.9,9.6-8.7,8.6-6.6
	c-2,4.3-4.5,10-5.5,12.6c-1.5,3.7,1.8,5.8,5,5.8c0,0,0,0,0.1,0c-0.1-1.4,0.5-3.7,0.8-4.6c0.7-2.1,1.8-4.7,2.9-7.2v0
	c5.2-7.9,9.6-8.7,8.7-6.6c-2,4.3-4.6,10-5.6,12.6c-1.5,3.7,1.8,5.8,5,5.8c4.4,0,7.6-3.6,9.9-7.7L205.7,45.7z"/>
<path d="M223.3,45.5c-4.1,6.4-14.4,8.6-12.8,0.2C224,43.6,224,32.5,224,32.5s-3.8-2.2-5.2-2.7c-0.7-0.3-1.4-0.4-2.2,0
	c-2.5,1.1-8.6,4.5-11.7,13.3c-2.8,8.3,3.2,10.9,6.6,10.9c5.9,0,10.2-2.9,12.9-7.8L223.3,45.5z M220.1,34.3c0.6,1.4-2.4,6.4-8.7,8.8
	C213.3,38.1,217.4,34.9,220.1,34.3z"/>
<path d="M235.8,31.6c2.5,0,1.7,5.9-0.9,5.9c5.6,4.7,12.8-7.9,1.5-7.9c-4.1,0-8.7,2.2-9.2,7.2c-0.5,5.2,3.8,6.9,3.9,10.1
	c0,2.8-1.2,4.4-3.4,4.4c-3.4,0-3-5.2-0.1-5.2c-5.6-4.7-10.4,7.8,0.9,7.8c2.3,0,8.7-1.5,9.3-7.1c0.5-4.8-5.3-7.9-4.8-12.1
	C233.1,32.9,234.4,31.6,235.8,31.6z"/>
<path d="M150.2,68.3c0-0.9-0.8-1.7-1.7-1.7c-0.9,0-1.7,0.8-1.7,1.7c0,0.9,0.8,1.7,1.7,1.7C149.4,70,150.2,69.2,150.2,68.3z"/>
<path d="M163.6,56c1.6,0,1.1,3.7-0.6,3.7c3.5,2.9,8-4.9,0.9-4.9c-2.6,0-5.4,1.4-5.8,4.5c-0.3,3.3,2.4,4.3,2.4,6.3
	c0,1.8-0.8,2.8-2.1,2.8c-2.1,0-1.9-3.3-0.1-3.3c-3.5-2.9-6.5,4.9,0.6,4.9c1.4,0,5.4-1,5.8-4.4c0.3-3-3.3-5-3-7.6
	C161.9,56.8,162.7,56,163.6,56z"/>
<path d="M178.8,64.7c-2.6,4-9,5.4-8,0.2c8.4-1.4,8.4-8.3,8.4-8.3s-2.4-1.4-3.2-1.7c-0.5-0.2-0.9-0.2-1.4,0c-1.6,0.7-5.4,2.8-7.3,8.3
	c-1.8,5.2,2,6.8,4.1,6.8c3.7,0,6.4-1.8,8-4.9L178.8,64.7z M176.8,57.7c0.4,0.9-1.5,4-5.5,5.5C172.6,60,175.1,58,176.8,57.7z"/>
<path d="M192.8,64.8c-0.9,1.4-2.3,3.5-3.6,3.5c-1.2,0-2-2.2-2.6-5c2.9-2.6,5.2-5.4,6.3-6.9l-2.1-1.4c-0.2,0.3-2.1,2.6-4.8,5.3
	c-0.3-2-0.4-4-0.5-5.3h-4.3c0,0,0.2,4.6,1.3,8.6c-0.8,0.8-1.7,1.4-2.6,2.1c-3.1,2.4-0.6,4.3,0.8,4.3c0,0-0.6-1.5,1.2-2.8
	c0.5-0.3,1-0.7,1.5-1.1c0.9,2.2,2.1,3.9,3.9,3.9c3.9,0,6.3-4.9,6.3-4.9L192.8,64.8z"/>
<path d="M213.2,73.2c0,0-1.8,1.9-6.6,0.7c-2.1-0.5-4-1.1-5.7-1.6c1.8-4.6,7-15.8,7-15.8l-3.2-1.5c0,0-2.8,6.1-5,11.2
	c-0.8,1-1.8,2-2.7,2.2c-1.3,0.3-1.5-0.4-1.3-1.2c1.4-4,4.6-10.7,4.6-10.7l-3.2-1.5c0,0-4,8.6-5.1,11.4c-0.9,2.4,1.1,3.6,3.2,3.6
	c1.3,0,2.4-0.5,3.3-1.2c-0.5,1.2-1,2.2-1.3,2.9c-0.8,0-1.7,0.1-2.5,0.3c-3.5,0.9-4.5,4.8-0.4,5.3c3.7,0.5,5.4-2.1,6.1-3.7
	c3.7,0.9,6.5,2.4,8.6,2.5C213.5,76.5,213.2,73.2,213.2,73.2z M194.3,75.6c-2.4-0.4-0.9-2.8,2.2-2.5c0,0,0.1,0,0.1,0
	C196,74.5,195.4,75.7,194.3,75.6z"/>
</svg>
